<?xml version="1.0" encoding="utf-8"?>
<!-- Generator: Adobe Illustrator 25.2.1, SVG Export Plug-In . SVG Version: 6.00 Build 0)  -->
<svg version="1.1" id="Layer_1" xmlns="http://www.w3.org/2000/svg" xmlns:xlink="http://www.w3.org/1999/xlink" x="0px" y="0px"
	 viewBox="0 0 1000 1000" style="enable-background:new 0 0 1000 1000;" xml:space="preserve">
<style type="text/css">
	.st0{enable-background:new    ;}
	.st1{fill:#444444;}
	.st2{fill:url(#SVGID_1_);}
	.st3{fill:url(#SVGID_2_);}
	.st4{fill:url(#SVGID_3_);}
</style>
<g class="st0">
	<path class="st1" d="M271.8,746.6l-3.2-0.6v-2.6h6.2c0.9,0,2.2-0.1,3.8-0.2c0.4,0,0.9-0.1,1.7-0.1c0.7,0,1.4,0,2,0
		c5.2,0,9.1,1.3,11.7,3.9c2.6,2.6,3.9,6.3,3.9,11.1c0,3.3-0.6,6.3-1.9,8.9c-1.3,2.6-3.1,4.6-5.5,6.1c-2.4,1.5-5.1,2.2-8.3,2.2
		c-0.8,0-2.1-0.1-3.9-0.2c-1.6-0.1-2.8-0.2-3.3-0.2h-6.4v-2.5l3.3-0.4V746.6z M282,772.4c2.8-0.1,5-1.2,6.7-3.4
		c1.6-2.2,2.4-5.5,2.4-10c0-4.2-0.8-7.5-2.4-9.8c-1.6-2.3-4-3.5-7.4-3.5c-0.7,0-1.4,0-2,0.1c-0.6,0.1-1.1,0.1-1.3,0.2V772
		C278.9,772.3,280.3,772.4,282,772.4z"/>
	<path class="st1" d="M303.8,755.3l-3-0.8v-2.8l7.8-0.9h0.1l1.2,0.8V772l2.8,0.3v2.5h-11.8v-2.5l3-0.4V755.3z M303.6,746.6
		c-0.6-0.6-0.9-1.4-0.9-2.3c0-1.1,0.3-2,1-2.7c0.7-0.7,1.6-1.1,2.7-1.1c1.1,0,2,0.3,2.6,0.9c0.6,0.6,0.9,1.4,0.9,2.3
		c0,1.1-0.3,2-1,2.7c-0.7,0.7-1.6,1-2.8,1h0C305,747.4,304.2,747.2,303.6,746.6z"/>
	<path class="st1" d="M320.4,771.4c0.2,0.3,0.7,0.7,1.5,1c0.8,0.3,1.6,0.4,2.4,0.4c1.3,0,2.3-0.3,3-0.8c0.7-0.6,1-1.3,1-2.2
		c0-0.9-0.4-1.7-1.2-2.3c-0.8-0.6-2.2-1.3-4.2-2.1l-1.2-0.5c-2-0.8-3.4-1.8-4.4-3c-1-1.2-1.4-2.7-1.4-4.5c0-1.3,0.4-2.4,1.1-3.4
		c0.8-1,1.8-1.8,3.2-2.4c1.4-0.6,3-0.8,4.8-0.8c1.3,0,2.5,0.1,3.4,0.3c0.9,0.2,1.9,0.4,3,0.7c0.6,0.2,1,0.3,1.3,0.3v5.6h-3.3l-1-3.2
		c-0.2-0.3-0.6-0.5-1.1-0.8c-0.6-0.2-1.3-0.3-2-0.3c-1.2,0-2.1,0.2-2.8,0.7c-0.7,0.5-1,1.2-1,2.1c0,0.8,0.2,1.4,0.7,2
		c0.5,0.5,1,0.9,1.6,1.2c0.6,0.3,1.6,0.8,3.1,1.4c1.5,0.7,2.8,1.3,3.8,1.9c1,0.6,1.8,1.4,2.5,2.3c0.7,0.9,1,2.1,1,3.5
		c0,2.1-0.8,3.8-2.5,5.1c-1.6,1.3-4,2-7.1,2c-1.4,0-2.7-0.1-3.9-0.4c-1.1-0.3-2.5-0.6-4-1l-0.9-0.3v-5.6h3.5L320.4,771.4z"/>
	<path class="st1" d="M338.6,756.7c1-1.9,2.4-3.4,4.2-4.4c1.8-1.1,3.9-1.6,6.4-1.6c1.1,0,2.1,0.1,2.9,0.3c0.8,0.2,1.7,0.4,2.8,0.7
		l1.2,0.3l-0.3,7.2h-3.7l-1.1-4.7c-0.2-0.7-1-1.1-2.5-1.1c-1.6,0-2.8,0.7-3.7,2.1c-0.9,1.4-1.4,3.5-1.4,6.5c0,3.1,0.5,5.5,1.6,7.1
		c1.1,1.7,2.5,2.5,4.3,2.5c2.1,0,4.1-0.6,5.9-1.7l1,2.2c-0.7,0.8-1.9,1.5-3.4,2.2c-1.5,0.7-3.1,1-4.9,1c-3.6,0-6.3-1.1-8.2-3.3
		c-1.8-2.2-2.7-5.2-2.7-8.8C337.2,760.8,337.7,758.6,338.6,756.7z"/>
	<path class="st1" d="M361.3,756.4c1.1-1.9,2.5-3.3,4.3-4.2s3.7-1.4,5.8-1.4c3.6,0,6.3,1.1,8.2,3.3c1.9,2.2,2.9,5.2,2.9,8.9
		c0,2.7-0.5,5-1.6,6.8c-1.1,1.9-2.5,3.3-4.2,4.2c-1.8,0.9-3.7,1.4-5.8,1.4c-3.5,0-6.3-1.1-8.2-3.3c-2-2.2-2.9-5.2-2.9-8.9
		C359.7,760.5,360.3,758.2,361.3,756.4z M376,763.3c0-3.2-0.4-5.7-1.1-7.4s-2-2.5-3.7-2.5c-3.3,0-4.9,3.1-4.9,9.2
		c0,3.2,0.4,5.7,1.2,7.4c0.8,1.7,2.1,2.5,3.8,2.5C374.4,772.6,376,769.5,376,763.3z"/>
	<path class="st1" d="M384.2,751.3h11.2v2.5l-2.8,0.6l3.9,11.5l1.4,4.5l1.1-4.4l3.8-11.7l-2.7-0.6v-2.5h9.3v2.5l-2.2,0.6l-7.9,20.9
		h-4.9l-8.4-20.9l-1.7-0.6V751.3z"/>
	<path class="st1" d="M413,772.1c-1.8-2.2-2.7-5.2-2.7-9c0-2.5,0.5-4.7,1.4-6.6c0.9-1.9,2.3-3.3,4-4.3c1.7-1,3.7-1.5,6-1.5
		c2.8,0,5,0.7,6.5,2.2c1.5,1.5,2.3,3.6,2.4,6.3c0,1.9-0.1,3.3-0.3,4.2h-13.8c0.1,2.6,0.7,4.6,1.8,6c1.1,1.4,2.7,2.1,4.7,2.1
		c1.1,0,2.2-0.2,3.4-0.6c1.2-0.4,2.1-0.8,2.8-1.3l1.1,2.3c-0.8,0.8-2,1.6-3.7,2.3c-1.7,0.7-3.4,1-5.2,1
		C417.6,775.3,414.8,774.3,413,772.1z M424.6,760.9c0.1-0.8,0.1-1.4,0.1-1.8c0-3.8-1.3-5.6-3.8-5.6c-1.4,0-2.5,0.6-3.2,1.7
		s-1.2,3-1.3,5.8H424.6z"/>
	<path class="st1" d="M433.9,772.4l2.8-0.3v-16.7l-2.7-0.8v-2.9l6.6-0.9h0.1l1.1,0.8v0.9l-0.1,3.4h0.1c0.2-0.6,0.7-1.3,1.4-2.1
		c0.7-0.8,1.7-1.6,2.8-2.2c1.1-0.6,2.3-1,3.6-1c0.6,0,1.2,0.1,1.6,0.3v6.4c-0.8-0.6-1.9-0.9-3.1-0.9c-2.1,0-3.9,0.6-5.4,1.7V772
		l4.9,0.4v2.5h-13.7V772.4z"/>
	<path class="st1" d="M467.1,771c-2.5-2.9-3.8-6.8-3.8-11.8c0-3.3,0.7-6.1,2-8.6c1.3-2.4,3.2-4.3,5.5-5.7c2.3-1.3,5-2,8-2
		c1.2,0,2.4,0.1,3.6,0.2c1.2,0.2,2.5,0.4,4.1,0.6c1.2,0.2,1.8,0.3,2,0.3l-0.5,8.7h-3.9l-1.3-6.1c-0.3-0.3-0.8-0.6-1.6-0.8
		c-0.8-0.2-1.7-0.3-2.9-0.3c-2.4,0-4.3,1.1-5.8,3.3c-1.5,2.2-2.2,5.4-2.2,9.6c0,4.1,0.7,7.4,2.1,10c1.4,2.6,3.4,3.9,6.1,3.9
		c1.3,0,2.3-0.1,2.9-0.4c0.7-0.2,1.3-0.6,1.8-1l1.9-4.4l3.6,0.3l-0.8,6.6c-0.6,0.1-1.2,0.2-1.8,0.3c-0.6,0.2-0.9,0.2-1.1,0.3
		c-1.1,0.3-2.2,0.6-3.2,0.7s-2.2,0.3-3.6,0.3C473.3,775.3,469.6,773.9,467.1,771z"/>
	<path class="st1" d="M493.4,756.4c1.1-1.9,2.5-3.3,4.3-4.2s3.7-1.4,5.8-1.4c3.6,0,6.3,1.1,8.2,3.3c1.9,2.2,2.9,5.2,2.9,8.9
		c0,2.7-0.5,5-1.6,6.8c-1.1,1.9-2.5,3.3-4.2,4.2c-1.8,0.9-3.7,1.4-5.8,1.4c-3.5,0-6.3-1.1-8.2-3.3c-2-2.2-2.9-5.2-2.9-8.9
		C491.8,760.5,492.4,758.2,493.4,756.4z M508.1,763.3c0-3.2-0.4-5.7-1.1-7.4c-0.8-1.7-2-2.5-3.7-2.5c-3.3,0-4.9,3.1-4.9,9.2
		c0,3.2,0.4,5.7,1.2,7.4c0.8,1.7,2.1,2.5,3.8,2.5C506.5,772.6,508.1,769.5,508.1,763.3z"/>
	<path class="st1" d="M518.5,772.3l2.4-0.4v-16.6l-2.7-0.8v-2.9l7-0.9l0.5,0.3l0.6,1.4v1.8c0.9-0.9,2.3-1.7,4-2.4
		c1.7-0.7,3.2-1,4.5-1c1.5,0,2.8,0.3,3.7,0.8c0.9,0.5,1.7,1.3,2.1,2.4c0.9-0.8,2.2-1.6,3.7-2.2s3-0.9,4.5-0.9c2.5,0,4.3,0.7,5.3,2.2
		c1,1.5,1.6,3.9,1.6,7.2V772l2.8,0.4v2.5h-11v-2.5l2.2-0.4v-11.5c0-2.2-0.3-3.8-0.8-4.6c-0.5-0.9-1.5-1.3-3-1.3
		c-0.8,0-1.6,0.2-2.4,0.5s-1.6,0.8-2.2,1.3c0.2,1.1,0.3,2.4,0.3,4V772l2.6,0.4v2.5h-11.1v-2.5l2.3-0.4v-11.7c0-1.5-0.1-2.6-0.3-3.5
		c-0.2-0.8-0.5-1.4-1-1.8s-1.2-0.6-2.2-0.6c-0.9,0-1.8,0.2-2.7,0.6c-0.9,0.4-1.7,0.9-2.4,1.5V772l2.5,0.4v2.5h-10.9V772.3z"/>
	<path class="st1" d="M561.5,772.3l2.4-0.4v-16.6l-2.7-0.8v-2.9l7-0.9l0.5,0.3l0.6,1.4v1.8c0.9-0.9,2.3-1.7,4-2.4
		c1.7-0.7,3.2-1,4.5-1c1.5,0,2.8,0.3,3.7,0.8c0.9,0.5,1.7,1.3,2.1,2.4c0.9-0.8,2.2-1.6,3.7-2.2s3-0.9,4.5-0.9c2.5,0,4.3,0.7,5.3,2.2
		c1,1.5,1.6,3.9,1.6,7.2V772l2.8,0.4v2.5h-11v-2.5l2.2-0.4v-11.5c0-2.2-0.3-3.8-0.8-4.6c-0.5-0.9-1.5-1.3-3-1.3
		c-0.8,0-1.6,0.2-2.4,0.5s-1.6,0.8-2.2,1.3c0.2,1.1,0.3,2.4,0.3,4V772l2.6,0.4v2.5h-11.1v-2.5l2.3-0.4v-11.7c0-1.5-0.1-2.6-0.3-3.5
		c-0.2-0.8-0.5-1.4-1-1.8s-1.2-0.6-2.2-0.6c-0.9,0-1.8,0.2-2.7,0.6c-0.9,0.4-1.7,0.9-2.4,1.5V772l2.5,0.4v2.5h-10.9V772.3z"/>
	<path class="st1" d="M621.5,774.7c-0.4-0.4-0.6-1-0.6-1.8v-1.1c-0.8,0.9-1.8,1.8-3.2,2.5c-1.4,0.7-2.8,1.1-4.2,1.1
		c-2.7,0-4.6-0.7-5.8-2.1c-1.2-1.4-1.7-3.7-1.7-6.9v-12l-2.1-0.6v-2.4l7.2-0.6h0l0.8,0.6v14.9c0,2.1,0.3,3.5,0.8,4.3
		c0.5,0.8,1.5,1.2,2.8,1.2c1.7,0,3.2-0.6,4.7-2v-15.6l-2.8-0.6v-2.4l7.7-0.6h0.1l1,0.6v20.9h2.4l0,2.4c-0.1,0-0.6,0.1-1.6,0.3
		s-2,0.3-3.3,0.3C622.6,775.3,621.9,775.1,621.5,774.7z"/>
	<path class="st1" d="M633.9,755.3l-2.7-0.8v-2.9l7-0.9h0.1l1.1,0.8v1.7l0,1c1-0.9,2.3-1.7,3.9-2.4c1.6-0.7,3.2-1,4.8-1
		c1.7,0,3.1,0.3,4,1c1,0.6,1.7,1.6,2.1,3c0.4,1.4,0.6,3.2,0.6,5.5V772l2.6,0.3v2.5h-10.9v-2.5l2.3-0.3v-11.7c0-1.5-0.1-2.6-0.3-3.5
		c-0.2-0.8-0.6-1.4-1.1-1.8s-1.3-0.6-2.2-0.6c-1.6,0-3.3,0.7-5.2,2.1V772l2.5,0.4v2.5h-11.1v-2.5l2.5-0.4V755.3z"/>
	<path class="st1" d="M663.2,755.3l-3-0.8v-2.8l7.8-0.9h0.1l1.2,0.8V772l2.8,0.3v2.5h-11.8v-2.5l3-0.4V755.3z M663,746.6
		c-0.6-0.6-0.9-1.4-0.9-2.3c0-1.1,0.3-2,1-2.7c0.7-0.7,1.6-1.1,2.7-1.1s2,0.3,2.6,0.9c0.6,0.6,0.9,1.4,0.9,2.3c0,1.1-0.3,2-1,2.7
		c-0.7,0.7-1.6,1-2.8,1h0C664.4,747.4,663.6,747.2,663,746.6z"/>
	<path class="st1" d="M678.3,774c-0.8-0.8-1.3-2.1-1.3-3.9v-15.6h-2.8v-2.2c0.2-0.1,0.6-0.2,1.2-0.4s1-0.4,1.4-0.5
		c0.5-0.4,0.9-1,1.2-1.9c0.3-0.6,0.7-2.1,1.4-4.4h3.4l0.2,6.2h6.5v3.3h-6.4v11.9c0,1.6,0,2.7,0.1,3.3c0.1,0.7,0.3,1.1,0.6,1.3
		c0.3,0.2,0.8,0.3,1.5,0.3c0.7,0,1.4-0.1,2.2-0.2c0.8-0.2,1.4-0.3,1.9-0.6l0.8,2.4c-0.8,0.6-2,1.1-3.5,1.6c-1.5,0.5-3,0.7-4.5,0.7
		C680.4,775.3,679.1,774.9,678.3,774z"/>
	<path class="st1" d="M694.5,785.3c-0.6-0.1-1-0.2-1.3-0.3v-4.5c0.2,0.1,0.6,0.2,1.2,0.3c0.6,0.1,1.1,0.2,1.6,0.2
		c1.4,0,2.6-0.5,3.5-1.4c0.9-0.9,1.8-2.5,2.6-4.7h-2.3l-8-20.6l-1.9-0.6v-2.5h11.7v2.5l-3.1,0.5l3.8,11.7l1.5,5l1.3-5l3.5-11.7
		l-2.7-0.5v-2.5h9.2v2.5l-2.1,0.5c-1.6,4.7-3.1,9.3-4.6,13.7c-1.5,4.4-2.4,6.9-2.7,7.4c-0.9,2.4-1.8,4.3-2.6,5.7
		c-0.8,1.4-1.8,2.5-2.9,3.2c-1.1,0.7-2.5,1.1-4.1,1.1C695.7,785.4,695.1,785.4,694.5,785.3z"/>
</g>
<g class="st0">
	<path class="st1" d="M134,730.7c-3.1-1.1-5.8-2.5-8.3-4.1c-2.5-1.6-5.5-3.8-9.2-6.5c-3.6-2.6-6.6-4.7-8.8-6.1
		c-2.3-1.5-4.6-2.5-7-3.2c-3.2,0.5-6,0.8-8.4,0.8c-12.5,0-21.8-3.9-28.1-11.8c-6.3-7.8-9.4-18.5-9.4-32.1c0-8.8,1.6-16.6,4.9-23.3
		c3.3-6.7,7.9-11.8,13.8-15.5c5.9-3.6,12.7-5.4,20.4-5.4c12.8,0,22.3,3.7,28.6,11.2c6.3,7.5,9.5,18,9.5,31.4c0,9.5-1.9,17.9-5.7,25
		c-3.8,7.1-9.1,12.4-15.7,16c3,0.4,5.9,1.2,8.8,2.4c2.9,1.2,6.4,2.9,10.6,5.1c4.5,2.3,8.3,4.1,11.4,5.2c3,1.2,6,1.8,8.9,1.8
		c2.1,0,3.8-0.2,5.2-0.5l1.5,5.2c-1.7,2.1-3.6,3.6-5.7,4.5c-2.1,0.9-4.6,1.4-7.4,1.4C140.3,732.4,137.1,731.8,134,730.7z
		 M107.8,694.7c3.5-6.6,5.3-16,5.3-28.4c0-12-1.7-20.9-5.1-26.8c-3.4-5.9-8.3-8.8-14.6-8.8c-6.3,0-11.2,3.1-14.8,9.3
		c-3.5,6.2-5.3,15.5-5.3,27.7c0,12.1,1.7,21.2,5.2,27.5c3.5,6.3,8.3,9.4,14.6,9.4C99.4,704.6,104.3,701.3,107.8,694.7z"/>
	<path class="st1" d="M187.1,709.9c-1.2-1.1-1.7-2.7-1.7-4.8V702c-2.1,2.5-5,4.8-8.8,6.7c-3.8,2-7.5,2.9-11.3,2.9
		c-7.4,0-12.6-1.9-15.8-5.7c-3.2-3.8-4.7-10.1-4.7-18.9v-32.5l-5.8-1.6v-6.6l19.6-1.5h0.1l2.3,1.6v40.6c0,5.6,0.7,9.5,2.1,11.8
		c1.4,2.2,4,3.3,7.7,3.3c4.5,0,8.8-1.8,12.7-5.3v-42.3l-7.7-1.7v-6.5l20.9-1.5h0.2l2.8,1.6v56.7h6.5l-0.1,6.6
		c-0.3,0.1-1.7,0.4-4.3,0.9s-5.6,0.8-9.1,0.8C190.1,711.5,188.2,711,187.1,709.9z"/>
	<path class="st1" d="M220.7,702.7c-5-6-7.4-14.1-7.4-24.4c0-6.9,1.3-12.9,3.9-18c2.6-5.1,6.2-9,10.9-11.6c4.7-2.7,10.1-4,16.3-4
		c7.7,0,13.6,2,17.8,6.1c4.2,4,6.3,9.8,6.5,17.2c0,5.1-0.3,8.8-0.9,11.3h-37.5c0.3,7,2,12.4,5,16.3c3,3.9,7.3,5.8,12.8,5.8
		c3,0,6.1-0.5,9.3-1.5c3.2-1,5.7-2.2,7.6-3.6l2.9,6.3c-2.1,2.2-5.4,4.3-10.1,6.2c-4.7,1.9-9.4,2.8-14.1,2.8
		C233.2,711.6,225.6,708.7,220.7,702.7z M252.3,672.3c0.2-2.2,0.2-3.8,0.2-5c0-10.2-3.4-15.3-10.3-15.3c-3.8,0-6.7,1.5-8.8,4.5
		s-3.2,8.3-3.5,15.8H252.3z"/>
	<path class="st1" d="M284.1,702.7c-5-6-7.4-14.1-7.4-24.4c0-6.9,1.3-12.9,3.9-18c2.6-5.1,6.2-9,10.9-11.6c4.7-2.7,10.1-4,16.3-4
		c7.7,0,13.6,2,17.8,6.1c4.2,4,6.3,9.8,6.5,17.2c0,5.1-0.3,8.8-0.9,11.3h-37.5c0.3,7,2,12.4,5,16.3c3,3.9,7.3,5.8,12.8,5.8
		c3,0,6.1-0.5,9.3-1.5c3.2-1,5.7-2.2,7.6-3.6l2.9,6.3c-2.1,2.2-5.4,4.3-10.1,6.2c-4.7,1.9-9.4,2.8-14.1,2.8
		C296.6,711.6,289.1,708.7,284.1,702.7z M315.8,672.3c0.2-2.2,0.2-3.8,0.2-5c0-10.2-3.4-15.3-10.3-15.3c-3.8,0-6.7,1.5-8.8,4.5
		s-3.2,8.3-3.5,15.8H315.8z"/>
	<path class="st1" d="M341.1,703.6l7.6-0.9v-45.4l-7.4-2.1v-8l17.9-2.4h0.3l2.9,2.3v2.5l-0.3,9.3h0.3c0.5-1.5,1.8-3.4,3.8-5.7
		c2-2.3,4.5-4.3,7.6-6c3-1.7,6.3-2.6,9.9-2.6c1.7,0,3.2,0.2,4.4,0.7v17.3c-2.3-1.6-5.1-2.4-8.4-2.4c-5.6,0-10.5,1.5-14.6,4.5v37.8
		l13.4,1v6.8h-37.2V703.6z"/>
	<path class="st1" d="M431.3,633.3l-8.6-1.5v-7.1h17.4c1.6,0,4.1-0.1,7.5-0.2c4.5-0.3,8.5-0.5,12.1-0.5c8,0,14.3,1,19,2.9
		c4.7,2,8,4.8,9.9,8.4c2,3.7,2.9,8.3,2.9,13.9c0,9.7-3,17.2-9.1,22.6c-6,5.4-14.4,8.1-25.1,8.1c-4.2,0-7.3-0.1-9.1-0.3v22.7
		l15.5,1.2v6.9h-41.5v-6.9l9.1-1.2V633.3z M457.1,672.8c5.1,0,9.3-1.8,12.4-5.4c3.1-3.6,4.7-9.5,4.7-17.8c0-6.5-1.4-11.2-4.2-14.1
		c-2.8-3-7.1-4.4-12.9-4.4c-2.2,0-4.4,0.2-6.7,0.5c-1.1,0.2-1.8,0.2-2.3,0.2v40.5C449.9,672.6,452.9,672.8,457.1,672.8z"/>
	<path class="st1" d="M503.3,660c2.9-5.1,6.7-8.9,11.6-11.5c4.8-2.6,10.1-3.9,15.8-3.9c9.7,0,17.2,3,22.4,8.9
		c5.3,6,7.9,14.1,7.9,24.3c0,7.3-1.4,13.5-4.3,18.6c-2.9,5.1-6.7,8.9-11.5,11.4c-4.8,2.5-10.1,3.7-15.9,3.7c-9.6,0-17.1-3-22.4-8.9
		c-5.3-6-8-14-8-24.3C499,671.2,500.4,665,503.3,660z M543.3,679c0-8.8-1-15.4-3.1-20c-2.1-4.6-5.5-6.9-10.1-6.9
		c-8.9,0-13.4,8.4-13.4,25.1c0,8.8,1.1,15.4,3.3,20c2.2,4.6,5.6,6.9,10.3,6.9C538.9,704.1,543.3,695.8,543.3,679z"/>
	<path class="st1" d="M582.8,708.2c-3.8-2.3-6.8-5.8-9-10.6c-2.2-4.8-3.3-10.7-3.3-17.9c0-6.5,1.3-12.4,4-17.7
		c2.7-5.3,6.6-9.6,11.7-12.7c5.1-3.2,11.3-4.7,18.6-4.7c2.9,0,5.7,0.3,8.3,0.9v-19.5l-11.3-1.6v-6.3l23.8-2.3h0.3l3.2,2.4v85.1h6.2
		v6.6c-5.5,1.2-10.1,1.7-13.7,1.7c-2.5,0-4.2-0.4-5.2-1.2s-1.6-2.4-1.6-4.8v-3.2c-2,2.7-4.7,4.9-8.2,6.6c-3.5,1.7-7.1,2.6-11,2.6
		C590.9,711.6,586.6,710.5,582.8,708.2z M608.4,700.5c2-1,3.5-2.3,4.7-3.7v-42c-0.5-0.8-1.7-1.4-3.4-2c-1.7-0.5-3.6-0.8-5.6-0.8
		c-4.9,0-8.9,2.1-11.8,6.4c-3,4.3-4.4,11.1-4.4,20.5c0,7.8,1.3,13.7,3.8,17.5s5.9,5.7,10,5.7C604.2,702.1,606.4,701.5,608.4,700.5z"
		/>
	<path class="st1" d="M646.2,661c2.7-5.2,6.5-9.2,11.4-12.1c5-2.9,10.7-4.3,17.4-4.3c3.1,0,5.7,0.2,8,0.7c2.2,0.5,4.7,1.1,7.5,1.8
		l3.3,0.9l-0.7,19.7h-10l-2.9-12.7c-0.5-2-2.7-3-6.8-3c-4.3,0-7.7,1.9-10.1,5.7c-2.4,3.8-3.7,9.6-3.7,17.6c0,8.5,1.5,14.9,4.4,19.4
		c2.9,4.5,6.8,6.7,11.6,6.7c5.8,0,11.2-1.6,16.1-4.7l2.7,6c-2,2.2-5.1,4.2-9.2,6c-4.1,1.8-8.6,2.8-13.3,2.8c-9.8,0-17.2-3-22.2-9.1
		c-5-6.1-7.4-14-7.4-23.9C642.2,672,643.5,666.2,646.2,661z"/>
	<path class="st1" d="M712.9,676.6c7-3.5,16.1-5.3,27.3-5.4v-2.7c0-3.2-0.3-5.6-1-7.4c-0.7-1.8-1.8-3.1-3.6-4
		c-1.7-0.9-4.2-1.3-7.6-1.3c-3.8,0-7.2,0.5-10.1,1.4c-3,1-6.1,2.2-9.3,3.7l-3.6-7.4c1.2-1,3.1-2.2,5.8-3.6c2.7-1.4,6-2.6,9.7-3.6
		c3.8-1,7.6-1.6,11.6-1.6c5.9,0,10.6,0.8,13.9,2.3c3.3,1.5,5.7,4,7.2,7.4c1.5,3.4,2.2,7.9,2.2,13.6v35.3h6.2v6.5
		c-1.5,0.4-3.7,0.8-6.6,1.2c-2.8,0.4-5.3,0.6-7.5,0.6c-2.6,0-4.4-0.4-5.2-1.2c-0.9-0.8-1.3-2.3-1.3-4.7v-3.1
		c-2.1,2.3-4.8,4.4-8.1,6.2c-3.3,1.8-7,2.8-11.2,2.8c-3.5,0-6.8-0.8-9.7-2.2c-3-1.5-5.3-3.7-7.1-6.6c-1.8-2.9-2.7-6.4-2.7-10.4
		C702.3,685.4,705.8,680.1,712.9,676.6z M734.7,700.6c2.1-1,3.9-2.1,5.4-3.5v-18.9c-6.9,0-12.1,1.2-15.5,3.5
		c-3.4,2.3-5.1,5.4-5.1,9.1s0.9,6.5,2.6,8.4c1.7,1.9,4.1,2.9,7.1,2.9C730.8,702.1,732.6,701.6,734.7,700.6z"/>
	<path class="st1" d="M781.6,700.9c0.6,0.9,2,1.8,4.2,2.6c2.2,0.8,4.4,1.2,6.6,1.2c3.6,0,6.3-0.8,8.1-2.2c1.8-1.5,2.7-3.5,2.7-5.9
		c0-2.5-1.1-4.6-3.3-6.2c-2.2-1.6-6-3.5-11.3-5.8l-3.2-1.4c-5.3-2.2-9.3-4.9-11.9-8.1c-2.6-3.2-3.9-7.2-3.9-12.2
		c0-3.5,1-6.6,3.1-9.3c2.1-2.7,5-4.9,8.8-6.4c3.8-1.5,8.1-2.3,13-2.3c3.6,0,6.7,0.2,9.3,0.7c2.6,0.5,5.3,1.1,8.1,1.8
		c1.5,0.5,2.7,0.8,3.5,0.9v15.1h-9.1l-2.7-8.8c-0.5-0.8-1.5-1.5-3.1-2.1c-1.6-0.6-3.5-0.9-5.5-0.9c-3.2,0-5.7,0.7-7.6,2
		c-1.9,1.3-2.8,3.2-2.8,5.6c0,2.2,0.7,3.9,2,5.4c1.3,1.4,2.7,2.5,4.3,3.3c1.5,0.8,4.4,2,8.5,3.8c4.2,1.8,7.6,3.5,10.3,5.1
		c2.7,1.6,5,3.7,6.8,6.3c1.8,2.6,2.7,5.7,2.7,9.4c0,5.7-2.2,10.3-6.7,13.8c-4.5,3.5-10.9,5.3-19.3,5.3c-3.9,0-7.4-0.3-10.6-1
		c-3.1-0.7-6.7-1.6-10.8-2.8l-2.5-0.8v-15.2h9.6L781.6,700.9z"/>
	<path class="st1" d="M837.3,708.1c-2.3-2.2-3.5-5.8-3.5-10.6v-42.3h-7.5v-6c0.6-0.2,1.7-0.6,3.3-1.2c1.6-0.6,2.8-1.1,3.7-1.4
		c1.3-1,2.4-2.7,3.3-5.2c0.7-1.6,2-5.6,3.8-12h9.2l0.5,17h17.6v8.9h-17.5v32.4c0,4.3,0.1,7.3,0.3,9.1c0.2,1.8,0.7,2.9,1.5,3.4
		c0.8,0.5,2.1,0.8,4,0.8c1.9,0,3.9-0.2,6-0.6c2.1-0.4,3.8-0.9,5.2-1.6l2.2,6.5c-2.2,1.6-5.3,3.1-9.5,4.4c-4.2,1.3-8.2,2-12.1,2
		C843.2,711.4,839.6,710.3,837.3,708.1z"/>
	<path class="st1" d="M888.5,700.9c0.6,0.9,2,1.8,4.2,2.6c2.2,0.8,4.4,1.2,6.6,1.2c3.6,0,6.3-0.8,8.1-2.2c1.8-1.5,2.7-3.5,2.7-5.9
		c0-2.5-1.1-4.6-3.3-6.2c-2.2-1.6-6-3.5-11.3-5.8l-3.2-1.4c-5.3-2.2-9.3-4.9-11.9-8.1c-2.6-3.2-3.9-7.2-3.9-12.2
		c0-3.5,1-6.6,3.1-9.3c2.1-2.7,5-4.9,8.8-6.4c3.8-1.5,8.1-2.3,13-2.3c3.6,0,6.7,0.2,9.3,0.7c2.6,0.5,5.3,1.1,8.1,1.8
		c1.5,0.5,2.7,0.8,3.5,0.9v15.1h-9.1l-2.7-8.8c-0.5-0.8-1.5-1.5-3.1-2.1c-1.6-0.6-3.5-0.9-5.5-0.9c-3.2,0-5.7,0.7-7.6,2
		c-1.9,1.3-2.8,3.2-2.8,5.6c0,2.2,0.7,3.9,2,5.4c1.3,1.4,2.7,2.5,4.3,3.3c1.5,0.8,4.4,2,8.5,3.8c4.2,1.8,7.6,3.5,10.3,5.1
		c2.7,1.6,5,3.7,6.8,6.3c1.8,2.6,2.7,5.7,2.7,9.4c0,5.7-2.2,10.3-6.7,13.8c-4.5,3.5-10.9,5.3-19.3,5.3c-3.9,0-7.4-0.3-10.6-1
		c-3.1-0.7-6.7-1.6-10.8-2.8l-2.5-0.8v-15.2h9.6L888.5,700.9z"/>
</g>
<g>
	
		<linearGradient id="SVGID_1_" gradientUnits="userSpaceOnUse" x1="151.5703" y1="547.2" x2="344.7" y2="547.2" gradientTransform="matrix(1 0 0 -1 0 1000)">
		<stop  offset="0" style="stop-color:#D0252A"/>
		<stop  offset="0.2" style="stop-color:#F68920"/>
		<stop  offset="0.4" style="stop-color:#FADF0E"/>
		<stop  offset="0.6" style="stop-color:#057B40"/>
		<stop  offset="0.8" style="stop-color:#22438B"/>
		<stop  offset="1" style="stop-color:#742A82"/>
	</linearGradient>
	<path class="st2" d="M344.7,387.2c-4.2,8.9-9.4,23.7-14.8,47.9c-9.3,41.9-17.9,72-26.2,91.8c-6.5,15.5-16,33-32.1,33
		c-0.6,0-1.2,0-1.8-0.1c-17.7-1.4-28-21.6-35.6-69.7c-3.9-24.5-5.8-48.6-6.2-55.5c-3.7-10.6-12.2-25-19.2-25.8
		c-5.2-0.6-16.2,7-29.9,30.4c-4.1,7-13.1,9.3-20.1,5.2c-7-4.1-9.3-13.1-5.2-20.2c19.1-32.4,38.3-47,58.7-44.7
		c29.8,3.4,43.1,43.3,44.5,47.8c0.3,1.1,0.5,2.3,0.6,3.5c2.5,38.5,9,77.4,15.1,93.9c5.5-10.2,15.3-35.2,28.9-96.2
		c11.2-50.4,24.7-76.6,43-82.8C342.1,358.2,339.6,379.2,344.7,387.2z"/>
	
		<linearGradient id="SVGID_2_" gradientUnits="userSpaceOnUse" x1="401.74" y1="602.15" x2="402.3673" y2="602.15" gradientTransform="matrix(1 0 0 -1 0 1000)">
		<stop  offset="0" style="stop-color:#D0252A"/>
		<stop  offset="0.2" style="stop-color:#F68920"/>
		<stop  offset="0.4" style="stop-color:#FADF0E"/>
		<stop  offset="0.6" style="stop-color:#057B40"/>
		<stop  offset="0.8" style="stop-color:#22438B"/>
		<stop  offset="1" style="stop-color:#742A82"/>
	</linearGradient>
	<path class="st3" d="M401.7,397.1c0.2,0.5,0.4,1,0.6,1.5c-0.2,0-0.3,0-0.3,0C401.9,398.1,401.8,397.6,401.7,397.1z"/>
	
		<linearGradient id="SVGID_3_" gradientUnits="userSpaceOnUse" x1="475.1" y1="592" x2="844.4376" y2="592" gradientTransform="matrix(1 0 0 -1 0 1000)">
		<stop  offset="0" style="stop-color:#D0252A"/>
		<stop  offset="0.2" style="stop-color:#F68920"/>
		<stop  offset="0.4" style="stop-color:#FADF0E"/>
		<stop  offset="0.6" style="stop-color:#057B40"/>
		<stop  offset="0.8" style="stop-color:#22438B"/>
		<stop  offset="1" style="stop-color:#742A82"/>
	</linearGradient>
	<path class="st4" d="M840.2,442.2c-3,3.1-30.1,29.7-62.8,27c-12.3-1-30.2-6.8-45.6-28.8c-9.6-13.8-17.1-29.8-23.7-43.9
		c-3.5-7.5-8-17-11.5-22.8c-4,7.1-11.1,23.7-21.5,62.1c-21.4,78.8-39.1,110.3-62.2,110.3c-0.7,0-1.5-0.1-2.2-0.1
		c-17.8-1.5-29.7-20.6-38.6-62c-5.2-24.3-7.6-47.9-7.9-50.4c-0.3-2.4-4-32.7-10.3-64.6c-8.2-41.4-15.4-58.8-19.4-65.9
		c-5.8,10-17.4,40.3-31.3,131.2c-1.8,11.6-3.6,22.2-5.5,31.8c-0.1-0.5-0.3-1.1-0.4-1.7c-5.1-17.6-13-30.5-22.2-40
		c19.9-128,37.7-154.5,59.5-154.5h0.5c20.2,0.3,33.6,25.1,46.2,85.6c7.7,37,12.1,73.3,12.3,74.8c0,0.1,0,0.2,0,0.3
		c3.5,36.1,12.4,73.6,19.7,84.3c4.8-5.5,16.6-24.2,33.6-86.8c17.6-64.8,29.2-86.1,47.9-87.7c18.9-1.6,28.3,18.3,40.1,43.7
		c6.1,13,13,27.8,21.2,39.5c7.2,10.2,15,15.6,23.8,16.4c16.2,1.4,34-12.7,39.5-18.2c5.7-5.8,15-5.8,20.8-0.2
		C845.8,427.2,845.9,436.5,840.2,442.2z"/>
	<path class="st1" d="M467.7,243.6c107-31.4,150.2,102,150.2,102S609,211.3,488.4,212.1C367.7,212.9,346,336.7,346,336.7
		s-0.8,3.7-1.8,9.2c-2.1,12.3-4.6,33.3,0.5,41.3c0.4,0.6,0.8,1.2,1.3,1.6c9.6,8.9,6,28.4,6,28.4s-6.3,19.6-6,45.9
		c-9.6,18.7-9.4,43.9,2.6,66.5c14.9,28.2,43.4,43.6,68.8,39.3c19.7,4.9,36.5,2.3,40.6,1.3c7.8-1.9,60-30.9,39.7-104.3
		c-0.1-0.5-0.3-1.1-0.4-1.7c-5.1-17.6-13-30.5-22.2-40c-28.4-29.4-68.7-26.1-72.6-25.7c-0.2,0-0.3,0-0.3,0c-0.1-0.5-0.2-1-0.3-1.5
		C377.3,276.7,467.7,243.6,467.7,243.6z M410.4,534.6c8.5-8.8,10.2-24,3.1-37.3c-8.4-16-26.1-23.2-39.4-16.2
		c-0.2,0.1-0.4,0.2-0.5,0.3c1.7-1.7,3.6-3.2,5.8-4.4c13.3-7,31,0.2,39.4,16.2C427,509,423.2,527.4,410.4,534.6z M462.1,467
		c17.6,33.4,9.7,72.3-17.6,87.7c18-18.6,21.5-50.9,6.5-79.2c-17.9-33.9-55.4-49.3-83.7-34.3c-0.4,0.2-0.8,0.5-1.3,0.7
		c3.5-3.7,7.7-6.8,12.3-9.2C406.7,417.7,444.2,433,462.1,467z"/>
</g>
</svg>
